  0
SECTION
  2
HEADER
  9
$ANGBASE
  50
0.0
  9
$ANGDIR
  70
1
  9
$MEASUREMENT
  70
1
  0
ENDSEC
  0
SECTION
  2
TABLES
  0
TABLE
  2
LTYPE
  70
4
  0
LTYPE
  5
40F
  2
CONTINUOUS
  70
0
  3
Solid line
  72
65
  73
0
  40
0.0
  0
LTYPE
  5
410
  2
DASHDOT
 70
0
  3
Dash Dot ____ _ ____ _
 72
65
 73
4
 40
2.0
 49
1.25
 49
-0.25
 49
0.25
 49
-0.25
  0
LTYPE
  5
411
  2
DASHED
 70
0
  3
Dashed __ __ __ __ __
 72
65
 73
2
 40
0.75
 49
0.5
 49
-0.25
  0
LTYPE
  5
43B
  2
DOTTED
 70
0
  3
Dotted .  .  .  .
 72
65
 73
2
 40
0.2
 49
0.0
 49
-0.2
  0
ENDTAB
  0
TABLE
  2
STYLE
  70
4
  0
STYLE
  2
KICAD
  70
0
  40
0
  41
1
  42
1
  50
0
  71
0
  3
isocp.shx
  0
STYLE
  2
KICADB
  70
0
  40
0
  41
1
  42
1
  50
0
  71
0
  3
isocp.shx
  0
STYLE
  2
KICADI
  70
0
  40
0
  41
1
  42
1
  50
15
  71
0
  3
isocp.shx
  0
STYLE
  2
KICADBI
  70
0
  40
0
  41
1
  42
1
  50
15
  71
0
  3
isocp.shx
  0
ENDTAB
  0
TABLE
  2
LAYER
  70
1
  0
LAYER
  2
BLACK
  70
0
  62
7
  6
CONTINUOUS
  0
ENDTAB
  0
ENDSEC
  0
SECTION
  2
ENTITIES
0
LINE
8
BLACK
6
CONTINUOUS
10
18.2039
20
-65.1506
11
18.2997
21
-64.8096
0
LINE
8
BLACK
6
CONTINUOUS
10
18.2997
20
-64.8096
11
18.4318
21
-64.4809
0
LINE
8
BLACK
6
CONTINUOUS
10
18.4318
20
-64.4809
11
18.5987
21
-64.1685
0
LINE
8
BLACK
6
CONTINUOUS
10
18.5987
20
-64.1685
11
18.7983
21
-63.8758
0
LINE
8
BLACK
6
CONTINUOUS
10
18.7983
20
-63.8758
11
19.0283
21
-63.6065
0
LINE
8
BLACK
6
CONTINUOUS
10
19.0283
20
-63.6065
11
19.2861
21
-63.3636
0
LINE
8
BLACK
6
CONTINUOUS
10
19.2861
20
-63.3636
11
19.5686
21
-63.1499
0
LINE
8
BLACK
6
CONTINUOUS
10
19.5686
20
-63.1499
11
19.8726
21
-62.968
0
LINE
8
BLACK
6
CONTINUOUS
10
19.8726
20
-62.968
11
20.1944
21
-62.82
0
LINE
8
BLACK
6
CONTINUOUS
10
20.1944
20
-62.82
11
20.5303
21
-62.7076
0
LINE
8
BLACK
6
CONTINUOUS
10
20.5303
20
-62.7076
11
20.8764
21
-62.6321
0
LINE
8
BLACK
6
CONTINUOUS
10
20.8764
20
-62.6321
11
21.2286
21
-62.5945
0
LINE
8
BLACK
6
CONTINUOUS
10
21.2286
20
-62.5945
11
21.5828
21
-62.5951
0
LINE
8
BLACK
6
CONTINUOUS
10
21.5828
20
-62.5951
11
21.9349
21
-62.634
0
LINE
8
BLACK
6
CONTINUOUS
10
21.9349
20
-62.634
11
22.2807
21
-62.7106
0
LINE
8
BLACK
6
CONTINUOUS
10
22.2807
20
-62.7106
11
22.6162
21
-62.8242
0
LINE
8
BLACK
6
CONTINUOUS
10
22.6162
20
-62.8242
11
22.9375
21
-62.9733
0
LINE
8
BLACK
6
CONTINUOUS
10
22.9375
20
-62.9733
11
23.2408
21
-63.1563
0
LINE
8
BLACK
6
CONTINUOUS
10
23.2408
20
-63.1563
11
23.5226
21
-63.371
0
LINE
8
BLACK
6
CONTINUOUS
10
23.5226
20
-63.371
11
23.7795
21
-63.6148
0
LINE
8
BLACK
6
CONTINUOUS
10
23.7795
20
-63.6148
11
24.0086
21
-63.8849
0
LINE
8
BLACK
6
CONTINUOUS
10
24.0086
20
-63.8849
11
24.2072
21
-64.1782
0
LINE
8
BLACK
6
CONTINUOUS
10
24.2072
20
-64.1782
11
24.373
21
-64.4913
0
LINE
8
BLACK
6
CONTINUOUS
10
24.373
20
-64.4913
11
24.5039
21
-64.8204
0
LINE
8
BLACK
6
CONTINUOUS
10
24.5039
20
-64.8204
11
24.5986
21
-65.1617
0
LINE
8
BLACK
6
CONTINUOUS
10
24.5986
20
-65.1617
11
24.6558
21
-65.5113
0
LINE
8
BLACK
6
CONTINUOUS
10
24.6558
20
-65.5113
11
24.675
21
-65.865
0
LINE
8
BLACK
6
CONTINUOUS
10
24.675
20
-65.865
11
24.6749
21
-65.8879
0
LINE
8
BLACK
6
CONTINUOUS
10
24.6749
20
-65.8879
11
24.6533
21
-66.2414
0
LINE
8
BLACK
6
CONTINUOUS
10
24.6533
20
-66.2414
11
24.5936
21
-66.5906
0
LINE
8
BLACK
6
CONTINUOUS
10
24.5936
20
-66.5906
11
24.4966
21
-66.9312
0
LINE
8
BLACK
6
CONTINUOUS
10
24.4966
20
-66.9312
11
24.3633
21
-67.2594
0
LINE
8
BLACK
6
CONTINUOUS
10
24.3633
20
-67.2594
11
24.1954
21
-67.5713
0
LINE
8
BLACK
6
CONTINUOUS
10
24.1954
20
-67.5713
11
23.9947
21
-67.8632
0
LINE
8
BLACK
6
CONTINUOUS
10
23.9947
20
-67.8632
11
23.7638
21
-68.1318
0
LINE
8
BLACK
6
CONTINUOUS
10
23.7638
20
-68.1318
11
23.5051
21
-68.3738
0
LINE
8
BLACK
6
CONTINUOUS
10
23.5051
20
-68.3738
11
23.2219
21
-68.5865
0
LINE
8
BLACK
6
CONTINUOUS
10
23.2219
20
-68.5865
11
22.9173
21
-68.7673
0
LINE
8
BLACK
6
CONTINUOUS
10
22.9173
20
-68.7673
11
22.595
21
-68.9142
0
LINE
8
BLACK
6
CONTINUOUS
10
22.595
20
-68.9142
11
22.2587
21
-69.0254
0
LINE
8
BLACK
6
CONTINUOUS
10
22.2587
20
-69.0254
11
21.9123
21
-69.0997
0
LINE
8
BLACK
6
CONTINUOUS
10
21.9123
20
-69.0997
11
21.56
21
-69.1361
0
LINE
8
BLACK
6
CONTINUOUS
10
21.56
20
-69.1361
11
21.2058
21
-69.1342
0
LINE
8
BLACK
6
CONTINUOUS
10
21.2058
20
-69.1342
11
20.8538
21
-69.0941
0
LINE
8
BLACK
6
CONTINUOUS
10
20.8538
20
-69.0941
11
20.5083
21
-69.0163
0
LINE
8
BLACK
6
CONTINUOUS
10
20.5083
20
-69.0163
11
20.1732
21
-68.9015
0
LINE
8
BLACK
6
CONTINUOUS
10
20.1732
20
-68.9015
11
19.8524
21
-68.7513
0
LINE
8
BLACK
6
CONTINUOUS
10
19.8524
20
-68.7513
11
19.5497
21
-68.5672
0
LINE
8
BLACK
6
CONTINUOUS
10
19.5497
20
-68.5672
11
19.2687
21
-68.3516
0
LINE
8
BLACK
6
CONTINUOUS
10
19.2687
20
-68.3516
11
19.0126
21
-68.1069
0
LINE
8
BLACK
6
CONTINUOUS
10
19.0126
20
-68.1069
11
18.7845
21
-67.8359
0
LINE
8
BLACK
6
CONTINUOUS
10
18.7845
20
-67.8359
11
18.5869
21
-67.5419
0
LINE
8
BLACK
6
CONTINUOUS
10
18.5869
20
-67.5419
11
18.4223
21
-67.2283
0
LINE
8
BLACK
6
CONTINUOUS
10
18.4223
20
-67.2283
11
18.2924
21
-66.8988
0
LINE
8
BLACK
6
CONTINUOUS
10
18.2924
20
-66.8988
11
18.199
21
-66.5571
0
LINE
8
BLACK
6
CONTINUOUS
10
18.199
20
-66.5571
11
18.1429
21
-66.2073
0
LINE
8
BLACK
6
CONTINUOUS
10
18.1429
20
-66.2073
11
18.125
21
-65.8536
0
LINE
8
BLACK
6
CONTINUOUS
10
18.125
20
-65.8536
11
18.1269
21
-65.8213
0
LINE
8
BLACK
6
CONTINUOUS
10
18.1269
20
-65.8213
11
18.1454
21
-65.4999
0
LINE
8
BLACK
6
CONTINUOUS
10
18.1454
20
-65.4999
11
18.2039
21
-65.1506
0
LINE
8
BLACK
6
CONTINUOUS
10
18.3385
20
-66.5157
11
18.4301
21
-66.853
0
LINE
8
BLACK
6
CONTINUOUS
10
18.4301
20
-66.853
11
18.5587
21
-67.1779
0
LINE
8
BLACK
6
CONTINUOUS
10
18.5587
20
-67.1779
11
18.7228
21
-67.4864
0
LINE
8
BLACK
6
CONTINUOUS
10
18.7228
20
-67.4864
11
18.9202
21
-67.7747
0
LINE
8
BLACK
6
CONTINUOUS
10
18.9202
20
-67.7747
11
19.1485
21
-68.0392
0
LINE
8
BLACK
6
CONTINUOUS
10
19.1485
20
-68.0392
11
19.4049
21
-68.2766
0
LINE
8
BLACK
6
CONTINUOUS
10
19.4049
20
-68.2766
11
19.6862
21
-68.484
0
LINE
8
BLACK
6
CONTINUOUS
10
19.6862
20
-68.484
11
19.9888
21
-68.6587
0
LINE
8
BLACK
6
CONTINUOUS
10
19.9888
20
-68.6587
11
20.309
21
-68.7986
0
LINE
8
BLACK
6
CONTINUOUS
10
20.309
20
-68.7986
11
20.6428
21
-68.902
0
LINE
8
BLACK
6
CONTINUOUS
10
20.6428
20
-68.902
11
20.986
21
-68.9674
0
LINE
8
BLACK
6
CONTINUOUS
10
20.986
20
-68.9674
11
21.3345
21
-68.9942
0
LINE
8
BLACK
6
CONTINUOUS
10
21.3345
20
-68.9942
11
21.6837
21
-68.982
0
LINE
8
BLACK
6
CONTINUOUS
10
21.6837
20
-68.982
11
22.0294
21
-68.931
0
LINE
8
BLACK
6
CONTINUOUS
10
22.0294
20
-68.931
11
22.3672
21
-68.8417
0
LINE
8
BLACK
6
CONTINUOUS
10
22.3672
20
-68.8417
11
22.693
21
-68.7154
0
LINE
8
BLACK
6
CONTINUOUS
10
22.693
20
-68.7154
11
23.0027
21
-68.5535
0
LINE
8
BLACK
6
CONTINUOUS
10
23.0027
20
-68.5535
11
23.2923
21
-68.3581
0
LINE
8
BLACK
6
CONTINUOUS
10
23.2923
20
-68.3581
11
23.5585
21
-68.1316
0
LINE
8
BLACK
6
CONTINUOUS
10
23.5585
20
-68.1316
11
23.7977
21
-67.8769
0
LINE
8
BLACK
6
CONTINUOUS
10
23.7977
20
-67.8769
11
24.007
21
-67.5971
0
LINE
8
BLACK
6
CONTINUOUS
10
24.007
20
-67.5971
11
24.1838
21
-67.2957
0
LINE
8
BLACK
6
CONTINUOUS
10
24.1838
20
-67.2957
11
24.3259
21
-66.9765
0
LINE
8
BLACK
6
CONTINUOUS
10
24.3259
20
-66.9765
11
24.4316
21
-66.6434
0
LINE
8
BLACK
6
CONTINUOUS
10
24.4316
20
-66.6434
11
24.4995
21
-66.3006
0
LINE
8
BLACK
6
CONTINUOUS
10
24.4995
20
-66.3006
11
24.5287
21
-65.9524
0
LINE
8
BLACK
6
CONTINUOUS
10
24.5287
20
-65.9524
11
24.5299
21
-65.865
0
LINE
8
BLACK
6
CONTINUOUS
10
24.5299
20
-65.865
11
24.5104
21
-65.5161
0
LINE
8
BLACK
6
CONTINUOUS
10
24.5104
20
-65.5161
11
24.4521
21
-65.1716
0
LINE
8
BLACK
6
CONTINUOUS
10
24.4521
20
-65.1716
11
24.3558
21
-64.8357
0
LINE
8
BLACK
6
CONTINUOUS
10
24.3558
20
-64.8357
11
24.2227
21
-64.5126
0
LINE
8
BLACK
6
CONTINUOUS
10
24.2227
20
-64.5126
11
24.0543
21
-64.2064
0
LINE
8
BLACK
6
CONTINUOUS
10
24.0543
20
-64.2064
11
23.8529
21
-63.9209
0
LINE
8
BLACK
6
CONTINUOUS
10
23.8529
20
-63.9209
11
23.6209
21
-63.6595
0
LINE
8
BLACK
6
CONTINUOUS
10
23.6209
20
-63.6595
11
23.3612
21
-63.4257
0
LINE
8
BLACK
6
CONTINUOUS
10
23.3612
20
-63.4257
11
23.0771
21
-63.2223
0
LINE
8
BLACK
6
CONTINUOUS
10
23.0771
20
-63.2223
11
22.7721
21
-63.0518
0
LINE
8
BLACK
6
CONTINUOUS
10
22.7721
20
-63.0518
11
22.4499
21
-62.9164
0
LINE
8
BLACK
6
CONTINUOUS
10
22.4499
20
-62.9164
11
22.1147
21
-62.8178
0
LINE
8
BLACK
6
CONTINUOUS
10
22.1147
20
-62.8178
11
21.7706
21
-62.7571
0
LINE
8
BLACK
6
CONTINUOUS
10
21.7706
20
-62.7571
11
21.4219
21
-62.7352
0
LINE
8
BLACK
6
CONTINUOUS
10
21.4219
20
-62.7352
11
21.0728
21
-62.7522
0
LINE
8
BLACK
6
CONTINUOUS
10
21.0728
20
-62.7522
11
20.7279
21
-62.8081
0
LINE
8
BLACK
6
CONTINUOUS
10
20.7279
20
-62.8081
11
20.3913
21
-62.9021
0
LINE
8
BLACK
6
CONTINUOUS
10
20.3913
20
-62.9021
11
20.0673
21
-63.033
0
LINE
8
BLACK
6
CONTINUOUS
10
20.0673
20
-63.033
11
19.76
21
-63.1992
0
LINE
8
BLACK
6
CONTINUOUS
10
19.76
20
-63.1992
11
19.473
21
-63.3986
0
LINE
8
BLACK
6
CONTINUOUS
10
19.473
20
-63.3986
11
19.2101
21
-63.6288
0
LINE
8
BLACK
6
CONTINUOUS
10
19.2101
20
-63.6288
11
18.9745
21
-63.8868
0
LINE
8
BLACK
6
CONTINUOUS
10
18.9745
20
-63.8868
11
18.7691
21
-64.1695
0
LINE
8
BLACK
6
CONTINUOUS
10
18.7691
20
-64.1695
11
18.5965
21
-64.4733
0
LINE
8
BLACK
6
CONTINUOUS
10
18.5965
20
-64.4733
11
18.4588
21
-64.7945
0
LINE
8
BLACK
6
CONTINUOUS
10
18.4588
20
-64.7945
11
18.3578
21
-65.129
0
LINE
8
BLACK
6
CONTINUOUS
10
18.3578
20
-65.129
11
18.2948
21
-65.4727
0
LINE
8
BLACK
6
CONTINUOUS
10
18.2948
20
-65.4727
11
18.2704
21
-65.8213
0
LINE
8
BLACK
6
CONTINUOUS
10
18.2704
20
-65.8213
11
18.285
21
-66.1704
0
LINE
8
BLACK
6
CONTINUOUS
10
18.285
20
-66.1704
11
18.3385
21
-66.5157
0
LINE
8
BLACK
6
CONTINUOUS
10
91.4039
20
-65.1506
11
91.4997
21
-64.8096
0
LINE
8
BLACK
6
CONTINUOUS
10
91.4997
20
-64.8096
11
91.6318
21
-64.4809
0
LINE
8
BLACK
6
CONTINUOUS
10
91.6318
20
-64.4809
11
91.7987
21
-64.1685
0
LINE
8
BLACK
6
CONTINUOUS
10
91.7987
20
-64.1685
11
91.9983
21
-63.8758
0
LINE
8
BLACK
6
CONTINUOUS
10
91.9983
20
-63.8758
11
92.2283
21
-63.6065
0
LINE
8
BLACK
6
CONTINUOUS
10
92.2283
20
-63.6065
11
92.4861
21
-63.3636
0
LINE
8
BLACK
6
CONTINUOUS
10
92.4861
20
-63.3636
11
92.7686
21
-63.1499
0
LINE
8
BLACK
6
CONTINUOUS
10
92.7686
20
-63.1499
11
93.0726
21
-62.968
0
LINE
8
BLACK
6
CONTINUOUS
10
93.0726
20
-62.968
11
93.3944
21
-62.82
0
LINE
8
BLACK
6
CONTINUOUS
10
93.3944
20
-62.82
11
93.7303
21
-62.7076
0
LINE
8
BLACK
6
CONTINUOUS
10
93.7303
20
-62.7076
11
94.0764
21
-62.6321
0
LINE
8
BLACK
6
CONTINUOUS
10
94.0764
20
-62.6321
11
94.4286
21
-62.5945
0
LINE
8
BLACK
6
CONTINUOUS
10
94.4286
20
-62.5945
11
94.7828
21
-62.5951
0
LINE
8
BLACK
6
CONTINUOUS
10
94.7828
20
-62.5951
11
95.1349
21
-62.634
0
LINE
8
BLACK
6
CONTINUOUS
10
95.1349
20
-62.634
11
95.4807
21
-62.7106
0
LINE
8
BLACK
6
CONTINUOUS
10
95.4807
20
-62.7106
11
95.8162
21
-62.8242
0
LINE
8
BLACK
6
CONTINUOUS
10
95.8162
20
-62.8242
11
96.1375
21
-62.9733
0
LINE
8
BLACK
6
CONTINUOUS
10
96.1375
20
-62.9733
11
96.4408
21
-63.1563
0
LINE
8
BLACK
6
CONTINUOUS
10
96.4408
20
-63.1563
11
96.7226
21
-63.371
0
LINE
8
BLACK
6
CONTINUOUS
10
96.7226
20
-63.371
11
96.9795
21
-63.6148
0
LINE
8
BLACK
6
CONTINUOUS
10
96.9795
20
-63.6148
11
97.2086
21
-63.8849
0
LINE
8
BLACK
6
CONTINUOUS
10
97.2086
20
-63.8849
11
97.4072
21
-64.1782
0
LINE
8
BLACK
6
CONTINUOUS
10
97.4072
20
-64.1782
11
97.573
21
-64.4913
0
LINE
8
BLACK
6
CONTINUOUS
10
97.573
20
-64.4913
11
97.7039
21
-64.8204
0
LINE
8
BLACK
6
CONTINUOUS
10
97.7039
20
-64.8204
11
97.7986
21
-65.1617
0
LINE
8
BLACK
6
CONTINUOUS
10
97.7986
20
-65.1617
11
97.8558
21
-65.5113
0
LINE
8
BLACK
6
CONTINUOUS
10
97.8558
20
-65.5113
11
97.875
21
-65.865
0
LINE
8
BLACK
6
CONTINUOUS
10
97.875
20
-65.865
11
97.8749
21
-65.8879
0
LINE
8
BLACK
6
CONTINUOUS
10
97.8749
20
-65.8879
11
97.8533
21
-66.2414
0
LINE
8
BLACK
6
CONTINUOUS
10
97.8533
20
-66.2414
11
97.7936
21
-66.5906
0
LINE
8
BLACK
6
CONTINUOUS
10
97.7936
20
-66.5906
11
97.6966
21
-66.9312
0
LINE
8
BLACK
6
CONTINUOUS
10
97.6966
20
-66.9312
11
97.5633
21
-67.2594
0
LINE
8
BLACK
6
CONTINUOUS
10
97.5633
20
-67.2594
11
97.3954
21
-67.5713
0
LINE
8
BLACK
6
CONTINUOUS
10
97.3954
20
-67.5713
11
97.1947
21
-67.8632
0
LINE
8
BLACK
6
CONTINUOUS
10
97.1947
20
-67.8632
11
96.9638
21
-68.1318
0
LINE
8
BLACK
6
CONTINUOUS
10
96.9638
20
-68.1318
11
96.7051
21
-68.3738
0
LINE
8
BLACK
6
CONTINUOUS
10
96.7051
20
-68.3738
11
96.4219
21
-68.5865
0
LINE
8
BLACK
6
CONTINUOUS
10
96.4219
20
-68.5865
11
96.1173
21
-68.7673
0
LINE
8
BLACK
6
CONTINUOUS
10
96.1173
20
-68.7673
11
95.795
21
-68.9142
0
LINE
8
BLACK
6
CONTINUOUS
10
95.795
20
-68.9142
11
95.4587
21
-69.0254
0
LINE
8
BLACK
6
CONTINUOUS
10
95.4587
20
-69.0254
11
95.1123
21
-69.0997
0
LINE
8
BLACK
6
CONTINUOUS
10
95.1123
20
-69.0997
11
94.76
21
-69.1361
0
LINE
8
BLACK
6
CONTINUOUS
10
94.76
20
-69.1361
11
94.4058
21
-69.1342
0
LINE
8
BLACK
6
CONTINUOUS
10
94.4058
20
-69.1342
11
94.0538
21
-69.0941
0
LINE
8
BLACK
6
CONTINUOUS
10
94.0538
20
-69.0941
11
93.7083
21
-69.0163
0
LINE
8
BLACK
6
CONTINUOUS
10
93.7083
20
-69.0163
11
93.3732
21
-68.9015
0
LINE
8
BLACK
6
CONTINUOUS
10
93.3732
20
-68.9015
11
93.0524
21
-68.7513
0
LINE
8
BLACK
6
CONTINUOUS
10
93.0524
20
-68.7513
11
92.7497
21
-68.5672
0
LINE
8
BLACK
6
CONTINUOUS
10
92.7497
20
-68.5672
11
92.4687
21
-68.3516
0
LINE
8
BLACK
6
CONTINUOUS
10
92.4687
20
-68.3516
11
92.2126
21
-68.1069
0
LINE
8
BLACK
6
CONTINUOUS
10
92.2126
20
-68.1069
11
91.9845
21
-67.8359
0
LINE
8
BLACK
6
CONTINUOUS
10
91.9845
20
-67.8359
11
91.7869
21
-67.5419
0
LINE
8
BLACK
6
CONTINUOUS
10
91.7869
20
-67.5419
11
91.6223
21
-67.2283
0
LINE
8
BLACK
6
CONTINUOUS
10
91.6223
20
-67.2283
11
91.4924
21
-66.8988
0
LINE
8
BLACK
6
CONTINUOUS
10
91.4924
20
-66.8988
11
91.399
21
-66.5571
0
LINE
8
BLACK
6
CONTINUOUS
10
91.399
20
-66.5571
11
91.3429
21
-66.2073
0
LINE
8
BLACK
6
CONTINUOUS
10
91.3429
20
-66.2073
11
91.325
21
-65.8536
0
LINE
8
BLACK
6
CONTINUOUS
10
91.325
20
-65.8536
11
91.3269
21
-65.8213
0
LINE
8
BLACK
6
CONTINUOUS
10
91.3269
20
-65.8213
11
91.3454
21
-65.4999
0
LINE
8
BLACK
6
CONTINUOUS
10
91.3454
20
-65.4999
11
91.4039
21
-65.1506
0
LINE
8
BLACK
6
CONTINUOUS
10
91.5385
20
-66.5157
11
91.6301
21
-66.853
0
LINE
8
BLACK
6
CONTINUOUS
10
91.6301
20
-66.853
11
91.7587
21
-67.1779
0
LINE
8
BLACK
6
CONTINUOUS
10
91.7587
20
-67.1779
11
91.9228
21
-67.4864
0
LINE
8
BLACK
6
CONTINUOUS
10
91.9228
20
-67.4864
11
92.1202
21
-67.7747
0
LINE
8
BLACK
6
CONTINUOUS
10
92.1202
20
-67.7747
11
92.3485
21
-68.0392
0
LINE
8
BLACK
6
CONTINUOUS
10
92.3485
20
-68.0392
11
92.6049
21
-68.2766
0
LINE
8
BLACK
6
CONTINUOUS
10
92.6049
20
-68.2766
11
92.8862
21
-68.484
0
LINE
8
BLACK
6
CONTINUOUS
10
92.8862
20
-68.484
11
93.1888
21
-68.6587
0
LINE
8
BLACK
6
CONTINUOUS
10
93.1888
20
-68.6587
11
93.509
21
-68.7986
0
LINE
8
BLACK
6
CONTINUOUS
10
93.509
20
-68.7986
11
93.8428
21
-68.902
0
LINE
8
BLACK
6
CONTINUOUS
10
93.8428
20
-68.902
11
94.186
21
-68.9674
0
LINE
8
BLACK
6
CONTINUOUS
10
94.186
20
-68.9674
11
94.5345
21
-68.9942
0
LINE
8
BLACK
6
CONTINUOUS
10
94.5345
20
-68.9942
11
94.8837
21
-68.982
0
LINE
8
BLACK
6
CONTINUOUS
10
94.8837
20
-68.982
11
95.2294
21
-68.931
0
LINE
8
BLACK
6
CONTINUOUS
10
95.2294
20
-68.931
11
95.5672
21
-68.8417
0
LINE
8
BLACK
6
CONTINUOUS
10
95.5672
20
-68.8417
11
95.893
21
-68.7154
0
LINE
8
BLACK
6
CONTINUOUS
10
95.893
20
-68.7154
11
96.2027
21
-68.5535
0
LINE
8
BLACK
6
CONTINUOUS
10
96.2027
20
-68.5535
11
96.4923
21
-68.3581
0
LINE
8
BLACK
6
CONTINUOUS
10
96.4923
20
-68.3581
11
96.7585
21
-68.1316
0
LINE
8
BLACK
6
CONTINUOUS
10
96.7585
20
-68.1316
11
96.9977
21
-67.8769
0
LINE
8
BLACK
6
CONTINUOUS
10
96.9977
20
-67.8769
11
97.207
21
-67.5971
0
LINE
8
BLACK
6
CONTINUOUS
10
97.207
20
-67.5971
11
97.3838
21
-67.2957
0
LINE
8
BLACK
6
CONTINUOUS
10
97.3838
20
-67.2957
11
97.5259
21
-66.9765
0
LINE
8
BLACK
6
CONTINUOUS
10
97.5259
20
-66.9765
11
97.6316
21
-66.6434
0
LINE
8
BLACK
6
CONTINUOUS
10
97.6316
20
-66.6434
11
97.6995
21
-66.3006
0
LINE
8
BLACK
6
CONTINUOUS
10
97.6995
20
-66.3006
11
97.7287
21
-65.9524
0
LINE
8
BLACK
6
CONTINUOUS
10
97.7287
20
-65.9524
11
97.7299
21
-65.865
0
LINE
8
BLACK
6
CONTINUOUS
10
97.7299
20
-65.865
11
97.7104
21
-65.5161
0
LINE
8
BLACK
6
CONTINUOUS
10
97.7104
20
-65.5161
11
97.6521
21
-65.1716
0
LINE
8
BLACK
6
CONTINUOUS
10
97.6521
20
-65.1716
11
97.5558
21
-64.8357
0
LINE
8
BLACK
6
CONTINUOUS
10
97.5558
20
-64.8357
11
97.4227
21
-64.5126
0
LINE
8
BLACK
6
CONTINUOUS
10
97.4227
20
-64.5126
11
97.2543
21
-64.2064
0
LINE
8
BLACK
6
CONTINUOUS
10
97.2543
20
-64.2064
11
97.0529
21
-63.9209
0
LINE
8
BLACK
6
CONTINUOUS
10
97.0529
20
-63.9209
11
96.8209
21
-63.6595
0
LINE
8
BLACK
6
CONTINUOUS
10
96.8209
20
-63.6595
11
96.5612
21
-63.4257
0
LINE
8
BLACK
6
CONTINUOUS
10
96.5612
20
-63.4257
11
96.2771
21
-63.2223
0
LINE
8
BLACK
6
CONTINUOUS
10
96.2771
20
-63.2223
11
95.9721
21
-63.0518
0
LINE
8
BLACK
6
CONTINUOUS
10
95.9721
20
-63.0518
11
95.6499
21
-62.9164
0
LINE
8
BLACK
6
CONTINUOUS
10
95.6499
20
-62.9164
11
95.3147
21
-62.8178
0
LINE
8
BLACK
6
CONTINUOUS
10
95.3147
20
-62.8178
11
94.9706
21
-62.7571
0
LINE
8
BLACK
6
CONTINUOUS
10
94.9706
20
-62.7571
11
94.6219
21
-62.7352
0
LINE
8
BLACK
6
CONTINUOUS
10
94.6219
20
-62.7352
11
94.2728
21
-62.7522
0
LINE
8
BLACK
6
CONTINUOUS
10
94.2728
20
-62.7522
11
93.9279
21
-62.8081
0
LINE
8
BLACK
6
CONTINUOUS
10
93.9279
20
-62.8081
11
93.5913
21
-62.9021
0
LINE
8
BLACK
6
CONTINUOUS
10
93.5913
20
-62.9021
11
93.2673
21
-63.033
0
LINE
8
BLACK
6
CONTINUOUS
10
93.2673
20
-63.033
11
92.96
21
-63.1992
0
LINE
8
BLACK
6
CONTINUOUS
10
92.96
20
-63.1992
11
92.673
21
-63.3986
0
LINE
8
BLACK
6
CONTINUOUS
10
92.673
20
-63.3986
11
92.4101
21
-63.6288
0
LINE
8
BLACK
6
CONTINUOUS
10
92.4101
20
-63.6288
11
92.1745
21
-63.8868
0
LINE
8
BLACK
6
CONTINUOUS
10
92.1745
20
-63.8868
11
91.9691
21
-64.1695
0
LINE
8
BLACK
6
CONTINUOUS
10
91.9691
20
-64.1695
11
91.7965
21
-64.4733
0
LINE
8
BLACK
6
CONTINUOUS
10
91.7965
20
-64.4733
11
91.6588
21
-64.7945
0
LINE
8
BLACK
6
CONTINUOUS
10
91.6588
20
-64.7945
11
91.5578
21
-65.129
0
LINE
8
BLACK
6
CONTINUOUS
10
91.5578
20
-65.129
11
91.4948
21
-65.4727
0
LINE
8
BLACK
6
CONTINUOUS
10
91.4948
20
-65.4727
11
91.4704
21
-65.8213
0
LINE
8
BLACK
6
CONTINUOUS
10
91.4704
20
-65.8213
11
91.485
21
-66.1704
0
LINE
8
BLACK
6
CONTINUOUS
10
91.485
20
-66.1704
11
91.5385
21
-66.5157
0
LINE
8
BLACK
6
CONTINUOUS
10
86.6039
20
-21.1506
11
86.6997
21
-20.8096
0
LINE
8
BLACK
6
CONTINUOUS
10
86.6997
20
-20.8096
11
86.8318
21
-20.4809
0
LINE
8
BLACK
6
CONTINUOUS
10
86.8318
20
-20.4809
11
86.9987
21
-20.1685
0
LINE
8
BLACK
6
CONTINUOUS
10
86.9987
20
-20.1685
11
87.1983
21
-19.8758
0
LINE
8
BLACK
6
CONTINUOUS
10
87.1983
20
-19.8758
11
87.4283
21
-19.6065
0
LINE
8
BLACK
6
CONTINUOUS
10
87.4283
20
-19.6065
11
87.6861
21
-19.3636
0
LINE
8
BLACK
6
CONTINUOUS
10
87.6861
20
-19.3636
11
87.9686
21
-19.1499
0
LINE
8
BLACK
6
CONTINUOUS
10
87.9686
20
-19.1499
11
88.2726
21
-18.968
0
LINE
8
BLACK
6
CONTINUOUS
10
88.2726
20
-18.968
11
88.5944
21
-18.82
0
LINE
8
BLACK
6
CONTINUOUS
10
88.5944
20
-18.82
11
88.9303
21
-18.7076
0
LINE
8
BLACK
6
CONTINUOUS
10
88.9303
20
-18.7076
11
89.2764
21
-18.6321
0
LINE
8
BLACK
6
CONTINUOUS
10
89.2764
20
-18.6321
11
89.6286
21
-18.5945
0
LINE
8
BLACK
6
CONTINUOUS
10
89.6286
20
-18.5945
11
89.9828
21
-18.5951
0
LINE
8
BLACK
6
CONTINUOUS
10
89.9828
20
-18.5951
11
90.3349
21
-18.634
0
LINE
8
BLACK
6
CONTINUOUS
10
90.3349
20
-18.634
11
90.6807
21
-18.7106
0
LINE
8
BLACK
6
CONTINUOUS
10
90.6807
20
-18.7106
11
91.0162
21
-18.8242
0
LINE
8
BLACK
6
CONTINUOUS
10
91.0162
20
-18.8242
11
91.3375
21
-18.9733
0
LINE
8
BLACK
6
CONTINUOUS
10
91.3375
20
-18.9733
11
91.6408
21
-19.1563
0
LINE
8
BLACK
6
CONTINUOUS
10
91.6408
20
-19.1563
11
91.9226
21
-19.371
0
LINE
8
BLACK
6
CONTINUOUS
10
91.9226
20
-19.371
11
92.1795
21
-19.6148
0
LINE
8
BLACK
6
CONTINUOUS
10
92.1795
20
-19.6148
11
92.4086
21
-19.8849
0
LINE
8
BLACK
6
CONTINUOUS
10
92.4086
20
-19.8849
11
92.6072
21
-20.1782
0
LINE
8
BLACK
6
CONTINUOUS
10
92.6072
20
-20.1782
11
92.773
21
-20.4913
0
LINE
8
BLACK
6
CONTINUOUS
10
92.773
20
-20.4913
11
92.9039
21
-20.8204
0
LINE
8
BLACK
6
CONTINUOUS
10
92.9039
20
-20.8204
11
92.9986
21
-21.1617
0
LINE
8
BLACK
6
CONTINUOUS
10
92.9986
20
-21.1617
11
93.0558
21
-21.5113
0
LINE
8
BLACK
6
CONTINUOUS
10
93.0558
20
-21.5113
11
93.075
21
-21.865
0
LINE
8
BLACK
6
CONTINUOUS
10
93.075
20
-21.865
11
93.0749
21
-21.8879
0
LINE
8
BLACK
6
CONTINUOUS
10
93.0749
20
-21.8879
11
93.0533
21
-22.2414
0
LINE
8
BLACK
6
CONTINUOUS
10
93.0533
20
-22.2414
11
92.9936
21
-22.5906
0
LINE
8
BLACK
6
CONTINUOUS
10
92.9936
20
-22.5906
11
92.8966
21
-22.9312
0
LINE
8
BLACK
6
CONTINUOUS
10
92.8966
20
-22.9312
11
92.7633
21
-23.2594
0
LINE
8
BLACK
6
CONTINUOUS
10
92.7633
20
-23.2594
11
92.5954
21
-23.5713
0
LINE
8
BLACK
6
CONTINUOUS
10
92.5954
20
-23.5713
11
92.3947
21
-23.8632
0
LINE
8
BLACK
6
CONTINUOUS
10
92.3947
20
-23.8632
11
92.1638
21
-24.1318
0
LINE
8
BLACK
6
CONTINUOUS
10
92.1638
20
-24.1318
11
91.9051
21
-24.3738
0
LINE
8
BLACK
6
CONTINUOUS
10
91.9051
20
-24.3738
11
91.6219
21
-24.5865
0
LINE
8
BLACK
6
CONTINUOUS
10
91.6219
20
-24.5865
11
91.3173
21
-24.7673
0
LINE
8
BLACK
6
CONTINUOUS
10
91.3173
20
-24.7673
11
90.995
21
-24.9142
0
LINE
8
BLACK
6
CONTINUOUS
10
90.995
20
-24.9142
11
90.6587
21
-25.0254
0
LINE
8
BLACK
6
CONTINUOUS
10
90.6587
20
-25.0254
11
90.3123
21
-25.0997
0
LINE
8
BLACK
6
CONTINUOUS
10
90.3123
20
-25.0997
11
89.96
21
-25.1361
0
LINE
8
BLACK
6
CONTINUOUS
10
89.96
20
-25.1361
11
89.6058
21
-25.1342
0
LINE
8
BLACK
6
CONTINUOUS
10
89.6058
20
-25.1342
11
89.2538
21
-25.0941
0
LINE
8
BLACK
6
CONTINUOUS
10
89.2538
20
-25.0941
11
88.9083
21
-25.0163
0
LINE
8
BLACK
6
CONTINUOUS
10
88.9083
20
-25.0163
11
88.5732
21
-24.9015
0
LINE
8
BLACK
6
CONTINUOUS
10
88.5732
20
-24.9015
11
88.2524
21
-24.7513
0
LINE
8
BLACK
6
CONTINUOUS
10
88.2524
20
-24.7513
11
87.9497
21
-24.5672
0
LINE
8
BLACK
6
CONTINUOUS
10
87.9497
20
-24.5672
11
87.6687
21
-24.3516
0
LINE
8
BLACK
6
CONTINUOUS
10
87.6687
20
-24.3516
11
87.4126
21
-24.1069
0
LINE
8
BLACK
6
CONTINUOUS
10
87.4126
20
-24.1069
11
87.1845
21
-23.8359
0
LINE
8
BLACK
6
CONTINUOUS
10
87.1845
20
-23.8359
11
86.9869
21
-23.5419
0
LINE
8
BLACK
6
CONTINUOUS
10
86.9869
20
-23.5419
11
86.8223
21
-23.2283
0
LINE
8
BLACK
6
CONTINUOUS
10
86.8223
20
-23.2283
11
86.6924
21
-22.8988
0
LINE
8
BLACK
6
CONTINUOUS
10
86.6924
20
-22.8988
11
86.599
21
-22.5571
0
LINE
8
BLACK
6
CONTINUOUS
10
86.599
20
-22.5571
11
86.5429
21
-22.2073
0
LINE
8
BLACK
6
CONTINUOUS
10
86.5429
20
-22.2073
11
86.525
21
-21.8536
0
LINE
8
BLACK
6
CONTINUOUS
10
86.525
20
-21.8536
11
86.5269
21
-21.8213
0
LINE
8
BLACK
6
CONTINUOUS
10
86.5269
20
-21.8213
11
86.5454
21
-21.4999
0
LINE
8
BLACK
6
CONTINUOUS
10
86.5454
20
-21.4999
11
86.6039
21
-21.1506
0
LINE
8
BLACK
6
CONTINUOUS
10
86.7385
20
-22.5157
11
86.8301
21
-22.853
0
LINE
8
BLACK
6
CONTINUOUS
10
86.8301
20
-22.853
11
86.9587
21
-23.1779
0
LINE
8
BLACK
6
CONTINUOUS
10
86.9587
20
-23.1779
11
87.1228
21
-23.4864
0
LINE
8
BLACK
6
CONTINUOUS
10
87.1228
20
-23.4864
11
87.3202
21
-23.7747
0
LINE
8
BLACK
6
CONTINUOUS
10
87.3202
20
-23.7747
11
87.5485
21
-24.0392
0
LINE
8
BLACK
6
CONTINUOUS
10
87.5485
20
-24.0392
11
87.8049
21
-24.2766
0
LINE
8
BLACK
6
CONTINUOUS
10
87.8049
20
-24.2766
11
88.0862
21
-24.484
0
LINE
8
BLACK
6
CONTINUOUS
10
88.0862
20
-24.484
11
88.3888
21
-24.6587
0
LINE
8
BLACK
6
CONTINUOUS
10
88.3888
20
-24.6587
11
88.709
21
-24.7986
0
LINE
8
BLACK
6
CONTINUOUS
10
88.709
20
-24.7986
11
89.0428
21
-24.902
0
LINE
8
BLACK
6
CONTINUOUS
10
89.0428
20
-24.902
11
89.386
21
-24.9674
0
LINE
8
BLACK
6
CONTINUOUS
10
89.386
20
-24.9674
11
89.7345
21
-24.9942
0
LINE
8
BLACK
6
CONTINUOUS
10
89.7345
20
-24.9942
11
90.0837
21
-24.982
0
LINE
8
BLACK
6
CONTINUOUS
10
90.0837
20
-24.982
11
90.4294
21
-24.931
0
LINE
8
BLACK
6
CONTINUOUS
10
90.4294
20
-24.931
11
90.7672
21
-24.8417
0
LINE
8
BLACK
6
CONTINUOUS
10
90.7672
20
-24.8417
11
91.093
21
-24.7154
0
LINE
8
BLACK
6
CONTINUOUS
10
91.093
20
-24.7154
11
91.4027
21
-24.5535
0
LINE
8
BLACK
6
CONTINUOUS
10
91.4027
20
-24.5535
11
91.6923
21
-24.3581
0
LINE
8
BLACK
6
CONTINUOUS
10
91.6923
20
-24.3581
11
91.9585
21
-24.1316
0
LINE
8
BLACK
6
CONTINUOUS
10
91.9585
20
-24.1316
11
92.1977
21
-23.8769
0
LINE
8
BLACK
6
CONTINUOUS
10
92.1977
20
-23.8769
11
92.407
21
-23.5971
0
LINE
8
BLACK
6
CONTINUOUS
10
92.407
20
-23.5971
11
92.5838
21
-23.2957
0
LINE
8
BLACK
6
CONTINUOUS
10
92.5838
20
-23.2957
11
92.7259
21
-22.9765
0
LINE
8
BLACK
6
CONTINUOUS
10
92.7259
20
-22.9765
11
92.8316
21
-22.6434
0
LINE
8
BLACK
6
CONTINUOUS
10
92.8316
20
-22.6434
11
92.8995
21
-22.3006
0
LINE
8
BLACK
6
CONTINUOUS
10
92.8995
20
-22.3006
11
92.9287
21
-21.9524
0
LINE
8
BLACK
6
CONTINUOUS
10
92.9287
20
-21.9524
11
92.9299
21
-21.865
0
LINE
8
BLACK
6
CONTINUOUS
10
92.9299
20
-21.865
11
92.9104
21
-21.5161
0
LINE
8
BLACK
6
CONTINUOUS
10
92.9104
20
-21.5161
11
92.8521
21
-21.1716
0
LINE
8
BLACK
6
CONTINUOUS
10
92.8521
20
-21.1716
11
92.7558
21
-20.8357
0
LINE
8
BLACK
6
CONTINUOUS
10
92.7558
20
-20.8357
11
92.6227
21
-20.5126
0
LINE
8
BLACK
6
CONTINUOUS
10
92.6227
20
-20.5126
11
92.4543
21
-20.2064
0
LINE
8
BLACK
6
CONTINUOUS
10
92.4543
20
-20.2064
11
92.2529
21
-19.9209
0
LINE
8
BLACK
6
CONTINUOUS
10
92.2529
20
-19.9209
11
92.0209
21
-19.6595
0
LINE
8
BLACK
6
CONTINUOUS
10
92.0209
20
-19.6595
11
91.7612
21
-19.4257
0
LINE
8
BLACK
6
CONTINUOUS
10
91.7612
20
-19.4257
11
91.4771
21
-19.2223
0
LINE
8
BLACK
6
CONTINUOUS
10
91.4771
20
-19.2223
11
91.1721
21
-19.0518
0
LINE
8
BLACK
6
CONTINUOUS
10
91.1721
20
-19.0518
11
90.8499
21
-18.9164
0
LINE
8
BLACK
6
CONTINUOUS
10
90.8499
20
-18.9164
11
90.5147
21
-18.8178
0
LINE
8
BLACK
6
CONTINUOUS
10
90.5147
20
-18.8178
11
90.1706
21
-18.7571
0
LINE
8
BLACK
6
CONTINUOUS
10
90.1706
20
-18.7571
11
89.8219
21
-18.7352
0
LINE
8
BLACK
6
CONTINUOUS
10
89.8219
20
-18.7352
11
89.4728
21
-18.7522
0
LINE
8
BLACK
6
CONTINUOUS
10
89.4728
20
-18.7522
11
89.1279
21
-18.8081
0
LINE
8
BLACK
6
CONTINUOUS
10
89.1279
20
-18.8081
11
88.7913
21
-18.9021
0
LINE
8
BLACK
6
CONTINUOUS
10
88.7913
20
-18.9021
11
88.4673
21
-19.033
0
LINE
8
BLACK
6
CONTINUOUS
10
88.4673
20
-19.033
11
88.16
21
-19.1992
0
LINE
8
BLACK
6
CONTINUOUS
10
88.16
20
-19.1992
11
87.873
21
-19.3986
0
LINE
8
BLACK
6
CONTINUOUS
10
87.873
20
-19.3986
11
87.6101
21
-19.6288
0
LINE
8
BLACK
6
CONTINUOUS
10
87.6101
20
-19.6288
11
87.3745
21
-19.8868
0
LINE
8
BLACK
6
CONTINUOUS
10
87.3745
20
-19.8868
11
87.1691
21
-20.1695
0
LINE
8
BLACK
6
CONTINUOUS
10
87.1691
20
-20.1695
11
86.9965
21
-20.4733
0
LINE
8
BLACK
6
CONTINUOUS
10
86.9965
20
-20.4733
11
86.8588
21
-20.7945
0
LINE
8
BLACK
6
CONTINUOUS
10
86.8588
20
-20.7945
11
86.7578
21
-21.129
0
LINE
8
BLACK
6
CONTINUOUS
10
86.7578
20
-21.129
11
86.6948
21
-21.4727
0
LINE
8
BLACK
6
CONTINUOUS
10
86.6948
20
-21.4727
11
86.6704
21
-21.8213
0
LINE
8
BLACK
6
CONTINUOUS
10
86.6704
20
-21.8213
11
86.685
21
-22.1704
0
LINE
8
BLACK
6
CONTINUOUS
10
86.685
20
-22.1704
11
86.7385
21
-22.5157
0
LINE
8
BLACK
6
CONTINUOUS
10
26.6039
20
-20.7506
11
26.6997
21
-20.4096
0
LINE
8
BLACK
6
CONTINUOUS
10
26.6997
20
-20.4096
11
26.8318
21
-20.0809
0
LINE
8
BLACK
6
CONTINUOUS
10
26.8318
20
-20.0809
11
26.9987
21
-19.7685
0
LINE
8
BLACK
6
CONTINUOUS
10
26.9987
20
-19.7685
11
27.1983
21
-19.4758
0
LINE
8
BLACK
6
CONTINUOUS
10
27.1983
20
-19.4758
11
27.4283
21
-19.2065
0
LINE
8
BLACK
6
CONTINUOUS
10
27.4283
20
-19.2065
11
27.6861
21
-18.9636
0
LINE
8
BLACK
6
CONTINUOUS
10
27.6861
20
-18.9636
11
27.9686
21
-18.7499
0
LINE
8
BLACK
6
CONTINUOUS
10
27.9686
20
-18.7499
11
28.2726
21
-18.568
0
LINE
8
BLACK
6
CONTINUOUS
10
28.2726
20
-18.568
11
28.5944
21
-18.42
0
LINE
8
BLACK
6
CONTINUOUS
10
28.5944
20
-18.42
11
28.9303
21
-18.3076
0
LINE
8
BLACK
6
CONTINUOUS
10
28.9303
20
-18.3076
11
29.2764
21
-18.2321
0
LINE
8
BLACK
6
CONTINUOUS
10
29.2764
20
-18.2321
11
29.6286
21
-18.1945
0
LINE
8
BLACK
6
CONTINUOUS
10
29.6286
20
-18.1945
11
29.9828
21
-18.1951
0
LINE
8
BLACK
6
CONTINUOUS
10
29.9828
20
-18.1951
11
30.3349
21
-18.234
0
LINE
8
BLACK
6
CONTINUOUS
10
30.3349
20
-18.234
11
30.6807
21
-18.3106
0
LINE
8
BLACK
6
CONTINUOUS
10
30.6807
20
-18.3106
11
31.0162
21
-18.4242
0
LINE
8
BLACK
6
CONTINUOUS
10
31.0162
20
-18.4242
11
31.3375
21
-18.5733
0
LINE
8
BLACK
6
CONTINUOUS
10
31.3375
20
-18.5733
11
31.6408
21
-18.7563
0
LINE
8
BLACK
6
CONTINUOUS
10
31.6408
20
-18.7563
11
31.9226
21
-18.971
0
LINE
8
BLACK
6
CONTINUOUS
10
31.9226
20
-18.971
11
32.1795
21
-19.2148
0
LINE
8
BLACK
6
CONTINUOUS
10
32.1795
20
-19.2148
11
32.4086
21
-19.4849
0
LINE
8
BLACK
6
CONTINUOUS
10
32.4086
20
-19.4849
11
32.6072
21
-19.7782
0
LINE
8
BLACK
6
CONTINUOUS
10
32.6072
20
-19.7782
11
32.773
21
-20.0913
0
LINE
8
BLACK
6
CONTINUOUS
10
32.773
20
-20.0913
11
32.9039
21
-20.4204
0
LINE
8
BLACK
6
CONTINUOUS
10
32.9039
20
-20.4204
11
32.9986
21
-20.7617
0
LINE
8
BLACK
6
CONTINUOUS
10
32.9986
20
-20.7617
11
33.0558
21
-21.1113
0
LINE
8
BLACK
6
CONTINUOUS
10
33.0558
20
-21.1113
11
33.075
21
-21.465
0
LINE
8
BLACK
6
CONTINUOUS
10
33.075
20
-21.465
11
33.0749
21
-21.4879
0
LINE
8
BLACK
6
CONTINUOUS
10
33.0749
20
-21.4879
11
33.0533
21
-21.8414
0
LINE
8
BLACK
6
CONTINUOUS
10
33.0533
20
-21.8414
11
32.9936
21
-22.1906
0
LINE
8
BLACK
6
CONTINUOUS
10
32.9936
20
-22.1906
11
32.8966
21
-22.5312
0
LINE
8
BLACK
6
CONTINUOUS
10
32.8966
20
-22.5312
11
32.7633
21
-22.8594
0
LINE
8
BLACK
6
CONTINUOUS
10
32.7633
20
-22.8594
11
32.5954
21
-23.1713
0
LINE
8
BLACK
6
CONTINUOUS
10
32.5954
20
-23.1713
11
32.3947
21
-23.4632
0
LINE
8
BLACK
6
CONTINUOUS
10
32.3947
20
-23.4632
11
32.1638
21
-23.7318
0
LINE
8
BLACK
6
CONTINUOUS
10
32.1638
20
-23.7318
11
31.9051
21
-23.9738
0
LINE
8
BLACK
6
CONTINUOUS
10
31.9051
20
-23.9738
11
31.6219
21
-24.1865
0
LINE
8
BLACK
6
CONTINUOUS
10
31.6219
20
-24.1865
11
31.3173
21
-24.3673
0
LINE
8
BLACK
6
CONTINUOUS
10
31.3173
20
-24.3673
11
30.995
21
-24.5142
0
LINE
8
BLACK
6
CONTINUOUS
10
30.995
20
-24.5142
11
30.6587
21
-24.6254
0
LINE
8
BLACK
6
CONTINUOUS
10
30.6587
20
-24.6254
11
30.3123
21
-24.6997
0
LINE
8
BLACK
6
CONTINUOUS
10
30.3123
20
-24.6997
11
29.96
21
-24.7361
0
LINE
8
BLACK
6
CONTINUOUS
10
29.96
20
-24.7361
11
29.6058
21
-24.7342
0
LINE
8
BLACK
6
CONTINUOUS
10
29.6058
20
-24.7342
11
29.2538
21
-24.6941
0
LINE
8
BLACK
6
CONTINUOUS
10
29.2538
20
-24.6941
11
28.9083
21
-24.6163
0
LINE
8
BLACK
6
CONTINUOUS
10
28.9083
20
-24.6163
11
28.5732
21
-24.5015
0
LINE
8
BLACK
6
CONTINUOUS
10
28.5732
20
-24.5015
11
28.2524
21
-24.3513
0
LINE
8
BLACK
6
CONTINUOUS
10
28.2524
20
-24.3513
11
27.9497
21
-24.1672
0
LINE
8
BLACK
6
CONTINUOUS
10
27.9497
20
-24.1672
11
27.6687
21
-23.9516
0
LINE
8
BLACK
6
CONTINUOUS
10
27.6687
20
-23.9516
11
27.4126
21
-23.7069
0
LINE
8
BLACK
6
CONTINUOUS
10
27.4126
20
-23.7069
11
27.1845
21
-23.4359
0
LINE
8
BLACK
6
CONTINUOUS
10
27.1845
20
-23.4359
11
26.9869
21
-23.1419
0
LINE
8
BLACK
6
CONTINUOUS
10
26.9869
20
-23.1419
11
26.8223
21
-22.8283
0
LINE
8
BLACK
6
CONTINUOUS
10
26.8223
20
-22.8283
11
26.6924
21
-22.4988
0
LINE
8
BLACK
6
CONTINUOUS
10
26.6924
20
-22.4988
11
26.599
21
-22.1571
0
LINE
8
BLACK
6
CONTINUOUS
10
26.599
20
-22.1571
11
26.5429
21
-21.8073
0
LINE
8
BLACK
6
CONTINUOUS
10
26.5429
20
-21.8073
11
26.525
21
-21.4536
0
LINE
8
BLACK
6
CONTINUOUS
10
26.525
20
-21.4536
11
26.5269
21
-21.4213
0
LINE
8
BLACK
6
CONTINUOUS
10
26.5269
20
-21.4213
11
26.5454
21
-21.0999
0
LINE
8
BLACK
6
CONTINUOUS
10
26.5454
20
-21.0999
11
26.6039
21
-20.7506
0
LINE
8
BLACK
6
CONTINUOUS
10
26.7385
20
-22.1157
11
26.8301
21
-22.453
0
LINE
8
BLACK
6
CONTINUOUS
10
26.8301
20
-22.453
11
26.9587
21
-22.7779
0
LINE
8
BLACK
6
CONTINUOUS
10
26.9587
20
-22.7779
11
27.1228
21
-23.0864
0
LINE
8
BLACK
6
CONTINUOUS
10
27.1228
20
-23.0864
11
27.3202
21
-23.3747
0
LINE
8
BLACK
6
CONTINUOUS
10
27.3202
20
-23.3747
11
27.5485
21
-23.6392
0
LINE
8
BLACK
6
CONTINUOUS
10
27.5485
20
-23.6392
11
27.8049
21
-23.8766
0
LINE
8
BLACK
6
CONTINUOUS
10
27.8049
20
-23.8766
11
28.0862
21
-24.084
0
LINE
8
BLACK
6
CONTINUOUS
10
28.0862
20
-24.084
11
28.3888
21
-24.2587
0
LINE
8
BLACK
6
CONTINUOUS
10
28.3888
20
-24.2587
11
28.709
21
-24.3986
0
LINE
8
BLACK
6
CONTINUOUS
10
28.709
20
-24.3986
11
29.0428
21
-24.502
0
LINE
8
BLACK
6
CONTINUOUS
10
29.0428
20
-24.502
11
29.386
21
-24.5674
0
LINE
8
BLACK
6
CONTINUOUS
10
29.386
20
-24.5674
11
29.7345
21
-24.5942
0
LINE
8
BLACK
6
CONTINUOUS
10
29.7345
20
-24.5942
11
30.0837
21
-24.582
0
LINE
8
BLACK
6
CONTINUOUS
10
30.0837
20
-24.582
11
30.4294
21
-24.531
0
LINE
8
BLACK
6
CONTINUOUS
10
30.4294
20
-24.531
11
30.7672
21
-24.4417
0
LINE
8
BLACK
6
CONTINUOUS
10
30.7672
20
-24.4417
11
31.093
21
-24.3154
0
LINE
8
BLACK
6
CONTINUOUS
10
31.093
20
-24.3154
11
31.4027
21
-24.1535
0
LINE
8
BLACK
6
CONTINUOUS
10
31.4027
20
-24.1535
11
31.6923
21
-23.9581
0
LINE
8
BLACK
6
CONTINUOUS
10
31.6923
20
-23.9581
11
31.9585
21
-23.7316
0
LINE
8
BLACK
6
CONTINUOUS
10
31.9585
20
-23.7316
11
32.1977
21
-23.4769
0
LINE
8
BLACK
6
CONTINUOUS
10
32.1977
20
-23.4769
11
32.407
21
-23.1971
0
LINE
8
BLACK
6
CONTINUOUS
10
32.407
20
-23.1971
11
32.5838
21
-22.8957
0
LINE
8
BLACK
6
CONTINUOUS
10
32.5838
20
-22.8957
11
32.7259
21
-22.5765
0
LINE
8
BLACK
6
CONTINUOUS
10
32.7259
20
-22.5765
11
32.8316
21
-22.2434
0
LINE
8
BLACK
6
CONTINUOUS
10
32.8316
20
-22.2434
11
32.8995
21
-21.9006
0
LINE
8
BLACK
6
CONTINUOUS
10
32.8995
20
-21.9006
11
32.9287
21
-21.5524
0
LINE
8
BLACK
6
CONTINUOUS
10
32.9287
20
-21.5524
11
32.9299
21
-21.465
0
LINE
8
BLACK
6
CONTINUOUS
10
32.9299
20
-21.465
11
32.9104
21
-21.1161
0
LINE
8
BLACK
6
CONTINUOUS
10
32.9104
20
-21.1161
11
32.8521
21
-20.7716
0
LINE
8
BLACK
6
CONTINUOUS
10
32.8521
20
-20.7716
11
32.7558
21
-20.4357
0
LINE
8
BLACK
6
CONTINUOUS
10
32.7558
20
-20.4357
11
32.6227
21
-20.1126
0
LINE
8
BLACK
6
CONTINUOUS
10
32.6227
20
-20.1126
11
32.4543
21
-19.8064
0
LINE
8
BLACK
6
CONTINUOUS
10
32.4543
20
-19.8064
11
32.2529
21
-19.5209
0
LINE
8
BLACK
6
CONTINUOUS
10
32.2529
20
-19.5209
11
32.0209
21
-19.2595
0
LINE
8
BLACK
6
CONTINUOUS
10
32.0209
20
-19.2595
11
31.7612
21
-19.0257
0
LINE
8
BLACK
6
CONTINUOUS
10
31.7612
20
-19.0257
11
31.4771
21
-18.8223
0
LINE
8
BLACK
6
CONTINUOUS
10
31.4771
20
-18.8223
11
31.1721
21
-18.6518
0
LINE
8
BLACK
6
CONTINUOUS
10
31.1721
20
-18.6518
11
30.8499
21
-18.5164
0
LINE
8
BLACK
6
CONTINUOUS
10
30.8499
20
-18.5164
11
30.5147
21
-18.4178
0
LINE
8
BLACK
6
CONTINUOUS
10
30.5147
20
-18.4178
11
30.1706
21
-18.3571
0
LINE
8
BLACK
6
CONTINUOUS
10
30.1706
20
-18.3571
11
29.8219
21
-18.3352
0
LINE
8
BLACK
6
CONTINUOUS
10
29.8219
20
-18.3352
11
29.4728
21
-18.3522
0
LINE
8
BLACK
6
CONTINUOUS
10
29.4728
20
-18.3522
11
29.1279
21
-18.4081
0
LINE
8
BLACK
6
CONTINUOUS
10
29.1279
20
-18.4081
11
28.7913
21
-18.5021
0
LINE
8
BLACK
6
CONTINUOUS
10
28.7913
20
-18.5021
11
28.4673
21
-18.633
0
LINE
8
BLACK
6
CONTINUOUS
10
28.4673
20
-18.633
11
28.16
21
-18.7992
0
LINE
8
BLACK
6
CONTINUOUS
10
28.16
20
-18.7992
11
27.873
21
-18.9986
0
LINE
8
BLACK
6
CONTINUOUS
10
27.873
20
-18.9986
11
27.6101
21
-19.2288
0
LINE
8
BLACK
6
CONTINUOUS
10
27.6101
20
-19.2288
11
27.3745
21
-19.4868
0
LINE
8
BLACK
6
CONTINUOUS
10
27.3745
20
-19.4868
11
27.1691
21
-19.7695
0
LINE
8
BLACK
6
CONTINUOUS
10
27.1691
20
-19.7695
11
26.9965
21
-20.0733
0
LINE
8
BLACK
6
CONTINUOUS
10
26.9965
20
-20.0733
11
26.8588
21
-20.3945
0
LINE
8
BLACK
6
CONTINUOUS
10
26.8588
20
-20.3945
11
26.7578
21
-20.729
0
LINE
8
BLACK
6
CONTINUOUS
10
26.7578
20
-20.729
11
26.6948
21
-21.0727
0
LINE
8
BLACK
6
CONTINUOUS
10
26.6948
20
-21.0727
11
26.6704
21
-21.4213
0
LINE
8
BLACK
6
CONTINUOUS
10
26.6704
20
-21.4213
11
26.685
21
-21.7704
0
LINE
8
BLACK
6
CONTINUOUS
10
26.685
20
-21.7704
11
26.7385
21
-22.1157
0
LINE
8
BLACK
6
CONTINUOUS
10
16.5646
20
-72.5004
11
16.55
21
-72.465
0
LINE
8
BLACK
6
CONTINUOUS
10
16.55
20
-72.465
11
16.55
21
-15.665
0
LINE
8
BLACK
6
CONTINUOUS
10
16.55
20
-15.665
11
16.5646
21
-15.6296
0
LINE
8
BLACK
6
CONTINUOUS
10
16.5646
20
-15.6296
11
16.6
21
-15.615
0
LINE
8
BLACK
6
CONTINUOUS
10
16.6
20
-15.615
11
100.8
21
-15.615
0
LINE
8
BLACK
6
CONTINUOUS
10
100.8
20
-15.615
11
100.835
21
-15.6296
0
LINE
8
BLACK
6
CONTINUOUS
10
100.835
20
-15.6296
11
100.85
21
-15.665
0
LINE
8
BLACK
6
CONTINUOUS
10
100.85
20
-15.665
11
100.85
21
-72.465
0
LINE
8
BLACK
6
CONTINUOUS
10
100.85
20
-72.465
11
100.835
21
-72.5004
0
LINE
8
BLACK
6
CONTINUOUS
10
100.835
20
-72.5004
11
100.8
21
-72.515
0
LINE
8
BLACK
6
CONTINUOUS
10
100.8
20
-72.515
11
16.6
21
-72.515
0
LINE
8
BLACK
6
CONTINUOUS
10
16.6
20
-72.515
11
16.5646
21
-72.5004
0
LINE
8
BLACK
6
CONTINUOUS
10
16.65
20
-15.715
11
16.65
21
-72.415
0
LINE
8
BLACK
6
CONTINUOUS
10
16.65
20
-72.415
11
100.75
21
-72.415
0
LINE
8
BLACK
6
CONTINUOUS
10
100.75
20
-72.415
11
100.75
21
-15.715
0
LINE
8
BLACK
6
CONTINUOUS
10
100.75
20
-15.715
11
16.65
21
-15.715
  0
ENDSEC
  0
EOF
